<svg viewBox="0 0 56.7 56.7" xml:space="preserve" xmlns="http://www.w3.org/2000/svg" enable-background="new 0 0 56.7 56.7"><path d="M11.338 3.557c-.955.106-2.032.45-2.977.94C6.14 5.669 4.487 7.949 4.05 10.462c-.095.533-.1 1.25-.1 17.841v17.288l.12.538c.76 3.436 3.189 5.864 6.625 6.625l.539.12H45.966l.538-.12c3.436-.76 5.865-3.189 6.625-6.625l.121-.538V28.303c0-16.59-.005-17.308-.1-17.841-.132-.771-.396-1.547-.797-2.35-1.251-2.517-3.764-4.26-6.583-4.565-.644-.069-33.809-.064-34.432.01zm18.86 8.779c1.816.227 3.284.665 4.894 1.451 1.583.776 2.597 1.51 3.938 2.845 1.256 1.262 1.953 2.217 2.692 3.7 1.029 2.07 1.615 4.53 1.715 7.238.037.923.01 1.13-.2 1.393-.402.512-1.283.428-1.584-.148-.095-.19-.121-.353-.153-1.092-.053-1.135-.132-1.869-.29-2.745-.623-3.437-2.27-6.181-4.899-8.15-2.19-1.647-4.455-2.45-7.421-2.624-1.003-.058-1.178-.095-1.405-.269-.422-.333-.443-1.114-.037-1.478.249-.227.423-.259 1.283-.232.449.016 1.109.068 1.468.11zm-12.066.57c.185.063.47.21.633.316 1.003.665 3.796 4.239 4.709 6.023.522 1.019.696 1.774.533 2.333-.17.602-.449.919-1.7 1.927-.501.406-.971.823-1.045.934-.19.275-.343.813-.343 1.193.005.882.575 2.481 1.325 3.711.58.956 1.62 2.18 2.65 3.12 1.208 1.108 2.275 1.863 3.478 2.46 1.547.77 2.492.965 3.183.644.174-.08.36-.185.417-.233.053-.047.46-.543.903-1.092.855-1.077 1.05-1.251 1.636-1.452.745-.253 1.505-.185 2.27.206.58.3 1.848 1.087 2.666 1.657 1.076.755 3.378 2.634 3.69 3.01.548.675.643 1.54.274 2.496-.39 1.008-1.911 2.898-2.972 3.705-.96.729-1.642 1.009-2.539 1.05-.739.038-1.045-.026-1.99-.416-7.411-3.056-13.328-7.617-18.026-13.883-2.455-3.272-4.323-6.667-5.6-10.187-.745-2.054-.782-2.946-.17-3.996.264-.444 1.389-1.542 2.207-2.154 1.362-1.013 1.99-1.388 2.491-1.494.343-.074.94-.016 1.32.122zm12.43 3.257c3.205.47 5.686 1.958 7.312 4.375.913 1.362 1.483 2.962 1.678 4.677.069.628.069 1.774-.005 1.964-.069.18-.29.422-.48.522-.206.106-.644.095-.887-.031-.407-.206-.528-.533-.528-1.42 0-1.367-.354-2.808-.966-3.927a8.023 8.023 0 0 0-2.945-3.067c-1.061-.634-2.63-1.103-4.06-1.22-.517-.042-.802-.147-.997-.374a.961.961 0 0 1-.08-1.193c.275-.428.697-.497 1.959-.306zm1.125 3.985c1.04.222 1.837.617 2.518 1.256.876.829 1.357 1.832 1.568 3.273.142.94.084 1.309-.248 1.615-.312.285-.887.296-1.235.026-.254-.19-.333-.39-.391-.934-.069-.723-.195-1.23-.412-1.7-.464-.997-1.282-1.514-2.665-1.683-.65-.08-.845-.153-1.056-.401-.386-.46-.238-1.204.295-1.479.201-.1.285-.11.729-.084.274.016.68.063.897.11z" fill="#4a5568" class="fill-000000"></path></svg>